<mxfile host="app.diagrams.net" modified="2022-03-29T18:03:48.973Z" agent="5.0 (Macintosh; Intel Mac OS X 10_15_7) AppleWebKit/537.36 (KHTML, like Gecko) Chrome/99.0.4844.83 Safari/537.36" etag="EnXaJ25Z0QjBF9Lq925p" version="17.2.5" type="github">
  <diagram id="XkK5CZMvHKRyhnpNBWVe" name="Page-1">
    <mxGraphModel dx="1059" dy="616" grid="1" gridSize="10" guides="1" tooltips="1" connect="1" arrows="1" fold="1" page="1" pageScale="1" pageWidth="1100" pageHeight="1700" math="0" shadow="0">
      <root>
        <mxCell id="0" />
        <mxCell id="1" parent="0" />
        <mxCell id="sggzFNjSwJessG-JttE5-1" value="s3 bucket" style="ellipse;whiteSpace=wrap;html=1;" parent="1" vertex="1">
          <mxGeometry x="10" y="400" width="120" height="80" as="geometry" />
        </mxCell>
        <mxCell id="vOzRaY_qLplyZbRAdgi7-1" value="Online Feature Store" style="rounded=0;whiteSpace=wrap;html=1;" vertex="1" parent="1">
          <mxGeometry x="160" y="320" width="120" height="70" as="geometry" />
        </mxCell>
        <mxCell id="vOzRaY_qLplyZbRAdgi7-2" value="Offline Feature Store" style="rounded=0;whiteSpace=wrap;html=1;" vertex="1" parent="1">
          <mxGeometry x="160" y="490" width="120" height="60" as="geometry" />
        </mxCell>
        <mxCell id="vOzRaY_qLplyZbRAdgi7-4" value="" style="endArrow=classic;html=1;rounded=0;entryX=0;entryY=0.5;entryDx=0;entryDy=0;exitX=0.717;exitY=0.05;exitDx=0;exitDy=0;exitPerimeter=0;" edge="1" parent="1" source="sggzFNjSwJessG-JttE5-1" target="vOzRaY_qLplyZbRAdgi7-1">
          <mxGeometry width="50" height="50" relative="1" as="geometry">
            <mxPoint x="160" y="400" as="sourcePoint" />
            <mxPoint x="210" y="350" as="targetPoint" />
          </mxGeometry>
        </mxCell>
        <mxCell id="vOzRaY_qLplyZbRAdgi7-5" value="" style="endArrow=classic;html=1;rounded=0;exitX=0.625;exitY=1.013;exitDx=0;exitDy=0;exitPerimeter=0;entryX=0;entryY=0.5;entryDx=0;entryDy=0;" edge="1" parent="1" source="sggzFNjSwJessG-JttE5-1" target="vOzRaY_qLplyZbRAdgi7-2">
          <mxGeometry width="50" height="50" relative="1" as="geometry">
            <mxPoint x="120" y="520" as="sourcePoint" />
            <mxPoint x="270" y="540" as="targetPoint" />
          </mxGeometry>
        </mxCell>
        <mxCell id="vOzRaY_qLplyZbRAdgi7-6" value="Process Data/Feature Store SQL query" style="rounded=1;whiteSpace=wrap;html=1;" vertex="1" parent="1">
          <mxGeometry x="400" y="320" width="120" height="70" as="geometry" />
        </mxCell>
        <mxCell id="vOzRaY_qLplyZbRAdgi7-8" value="GetRecord" style="text;html=1;align=center;verticalAlign=middle;resizable=0;points=[];autosize=1;strokeColor=none;fillColor=none;" vertex="1" parent="1">
          <mxGeometry x="300" y="320" width="70" height="20" as="geometry" />
        </mxCell>
        <mxCell id="vOzRaY_qLplyZbRAdgi7-9" value="Inference_request&amp;nbsp;" style="rounded=1;whiteSpace=wrap;html=1;" vertex="1" parent="1">
          <mxGeometry x="580" y="320" width="120" height="70" as="geometry" />
        </mxCell>
        <mxCell id="vOzRaY_qLplyZbRAdgi7-11" value="Deployed Model" style="rounded=1;whiteSpace=wrap;html=1;" vertex="1" parent="1">
          <mxGeometry x="760" y="600" width="120" height="70" as="geometry" />
        </mxCell>
        <mxCell id="vOzRaY_qLplyZbRAdgi7-12" value="" style="endArrow=classic;html=1;rounded=0;entryX=0.5;entryY=0;entryDx=0;entryDy=0;" edge="1" parent="1" target="vOzRaY_qLplyZbRAdgi7-11">
          <mxGeometry width="50" height="50" relative="1" as="geometry">
            <mxPoint x="700" y="360" as="sourcePoint" />
            <mxPoint x="750" y="310" as="targetPoint" />
          </mxGeometry>
        </mxCell>
        <mxCell id="vOzRaY_qLplyZbRAdgi7-13" value="Athena Query" style="text;html=1;strokeColor=none;fillColor=none;align=center;verticalAlign=middle;whiteSpace=wrap;rounded=0;" vertex="1" parent="1">
          <mxGeometry x="310" y="490" width="60" height="30" as="geometry" />
        </mxCell>
      </root>
    </mxGraphModel>
  </diagram>
</mxfile>
